<svg xmlns="http://www.w3.org/2000/svg" version="1.1" xmlns:xlink="http://www.w3.org/1999/xlink" xmlns:svgjs="http://svgjs.com/svgjs" width="1440" height="560" preserveAspectRatio="none" viewBox="0 0 1440 560"><g mask="url(&quot;#SvgjsMask1177&quot;)" fill="none"><rect width="1440" height="560" x="0" y="0" fill="url(#SvgjsLinearGradient1178)"></rect><path d="M28.31 -18.69L93.26 18.81L93.26 93.81L28.31 131.31L-36.64 93.81L-36.64 18.81zM93.26 93.81L158.22 131.31L158.22 206.31L93.26 243.81L28.31 206.31L28.31 131.31zM353.08 93.81L418.03 131.31L418.03 206.31L353.08 243.81L288.13 206.31L288.13 131.31zM353.08 318.81L418.03 356.31L418.03 431.31L353.08 468.81L288.13 431.31L288.13 356.31zM288.13 431.31L353.08 468.81L353.08 543.81L288.13 581.31L223.17 543.81L223.17 468.81zM482.99 543.81L547.94 581.31L547.94 656.31L482.99 693.81L418.03 656.31L418.03 581.31zM547.94 -18.69L612.89 18.81L612.89 93.81L547.94 131.31L482.99 93.81L482.99 18.81zM612.89 93.81L677.85 131.31L677.85 206.31L612.89 243.81L547.94 206.31L547.94 131.31zM547.94 206.31L612.89 243.81L612.89 318.81L547.94 356.31L482.99 318.81L482.99 243.81zM547.94 431.31L612.89 468.81L612.89 543.81L547.94 581.31L482.99 543.81L482.99 468.81zM612.89 543.81L677.85 581.31L677.85 656.31L612.89 693.81L547.94 656.31L547.94 581.31zM872.71 93.81L937.66 131.31L937.66 206.31L872.71 243.81L807.75 206.31L807.75 131.31zM807.75 206.31L872.71 243.81L872.71 318.81L807.75 356.31L742.8 318.81L742.8 243.81zM807.75 431.31L872.71 468.81L872.71 543.81L807.75 581.31L742.8 543.81L742.8 468.81zM872.71 543.81L937.66 581.31L937.66 656.31L872.71 693.81L807.75 656.31L807.75 581.31zM937.66 -18.69L1002.62 18.81L1002.62 93.81L937.66 131.31L872.71 93.81L872.71 18.81zM1002.62 93.81L1067.57 131.31L1067.57 206.31L1002.62 243.81L937.66 206.31L937.66 131.31zM1132.52 318.81L1197.48 356.31L1197.48 431.31L1132.52 468.81L1067.57 431.31L1067.57 356.31zM1067.57 431.31L1132.52 468.81L1132.52 543.81L1067.57 581.31L1002.62 543.81L1002.62 468.81zM1197.48 431.31L1262.43 468.81L1262.43 543.81L1197.48 581.31L1132.52 543.81L1132.52 468.81zM1327.38 -18.69L1392.34 18.81L1392.34 93.81L1327.38 131.31L1262.43 93.81L1262.43 18.81zM1392.34 318.81L1457.29 356.31L1457.29 431.31L1392.34 468.81L1327.38 431.31L1327.38 356.31z" stroke="#03305d" stroke-width="2"></path><path d="M20.81 -18.69 a7.5 7.5 0 1 0 15 0 a7.5 7.5 0 1 0 -15 0zM85.76 18.81 a7.5 7.5 0 1 0 15 0 a7.5 7.5 0 1 0 -15 0zM85.76 93.81 a7.5 7.5 0 1 0 15 0 a7.5 7.5 0 1 0 -15 0zM20.81 131.31 a7.5 7.5 0 1 0 15 0 a7.5 7.5 0 1 0 -15 0zM-44.14 93.81 a7.5 7.5 0 1 0 15 0 a7.5 7.5 0 1 0 -15 0zM-44.14 18.81 a7.5 7.5 0 1 0 15 0 a7.5 7.5 0 1 0 -15 0zM150.72 131.31 a7.5 7.5 0 1 0 15 0 a7.5 7.5 0 1 0 -15 0zM150.72 206.31 a7.5 7.5 0 1 0 15 0 a7.5 7.5 0 1 0 -15 0zM85.76 243.81 a7.5 7.5 0 1 0 15 0 a7.5 7.5 0 1 0 -15 0zM20.81 206.31 a7.5 7.5 0 1 0 15 0 a7.5 7.5 0 1 0 -15 0zM345.58 93.81 a7.5 7.5 0 1 0 15 0 a7.5 7.5 0 1 0 -15 0zM410.53 131.31 a7.5 7.5 0 1 0 15 0 a7.5 7.5 0 1 0 -15 0zM410.53 206.31 a7.5 7.5 0 1 0 15 0 a7.5 7.5 0 1 0 -15 0zM345.58 243.81 a7.5 7.5 0 1 0 15 0 a7.5 7.5 0 1 0 -15 0zM280.63 206.31 a7.5 7.5 0 1 0 15 0 a7.5 7.5 0 1 0 -15 0zM280.63 131.31 a7.5 7.5 0 1 0 15 0 a7.5 7.5 0 1 0 -15 0zM345.58 318.81 a7.5 7.5 0 1 0 15 0 a7.5 7.5 0 1 0 -15 0zM410.53 356.31 a7.5 7.5 0 1 0 15 0 a7.5 7.5 0 1 0 -15 0zM410.53 431.31 a7.5 7.5 0 1 0 15 0 a7.5 7.5 0 1 0 -15 0zM345.58 468.81 a7.5 7.5 0 1 0 15 0 a7.5 7.5 0 1 0 -15 0zM280.63 431.31 a7.5 7.5 0 1 0 15 0 a7.5 7.5 0 1 0 -15 0zM280.63 356.31 a7.5 7.5 0 1 0 15 0 a7.5 7.5 0 1 0 -15 0zM345.58 543.81 a7.5 7.5 0 1 0 15 0 a7.5 7.5 0 1 0 -15 0zM280.63 581.31 a7.5 7.5 0 1 0 15 0 a7.5 7.5 0 1 0 -15 0zM215.67 543.81 a7.5 7.5 0 1 0 15 0 a7.5 7.5 0 1 0 -15 0zM215.67 468.81 a7.5 7.5 0 1 0 15 0 a7.5 7.5 0 1 0 -15 0zM475.49 543.81 a7.5 7.5 0 1 0 15 0 a7.5 7.5 0 1 0 -15 0zM540.44 581.31 a7.5 7.5 0 1 0 15 0 a7.5 7.5 0 1 0 -15 0zM540.44 656.31 a7.5 7.5 0 1 0 15 0 a7.5 7.5 0 1 0 -15 0zM475.49 693.81 a7.5 7.5 0 1 0 15 0 a7.5 7.5 0 1 0 -15 0zM410.53 656.31 a7.5 7.5 0 1 0 15 0 a7.5 7.5 0 1 0 -15 0zM410.53 581.31 a7.5 7.5 0 1 0 15 0 a7.5 7.5 0 1 0 -15 0zM540.44 -18.69 a7.5 7.5 0 1 0 15 0 a7.5 7.5 0 1 0 -15 0zM605.39 18.81 a7.5 7.5 0 1 0 15 0 a7.5 7.5 0 1 0 -15 0zM605.39 93.81 a7.5 7.5 0 1 0 15 0 a7.5 7.5 0 1 0 -15 0zM540.44 131.31 a7.5 7.5 0 1 0 15 0 a7.5 7.5 0 1 0 -15 0zM475.49 93.81 a7.5 7.5 0 1 0 15 0 a7.5 7.5 0 1 0 -15 0zM475.49 18.81 a7.5 7.5 0 1 0 15 0 a7.5 7.5 0 1 0 -15 0zM670.35 131.31 a7.5 7.5 0 1 0 15 0 a7.5 7.5 0 1 0 -15 0zM670.35 206.31 a7.5 7.5 0 1 0 15 0 a7.5 7.5 0 1 0 -15 0zM605.39 243.81 a7.5 7.5 0 1 0 15 0 a7.5 7.5 0 1 0 -15 0zM540.44 206.31 a7.5 7.5 0 1 0 15 0 a7.5 7.5 0 1 0 -15 0zM605.39 318.81 a7.5 7.5 0 1 0 15 0 a7.5 7.5 0 1 0 -15 0zM540.44 356.31 a7.5 7.5 0 1 0 15 0 a7.5 7.5 0 1 0 -15 0zM475.49 318.81 a7.5 7.5 0 1 0 15 0 a7.5 7.5 0 1 0 -15 0zM475.49 243.81 a7.5 7.5 0 1 0 15 0 a7.5 7.5 0 1 0 -15 0zM540.44 431.31 a7.5 7.5 0 1 0 15 0 a7.5 7.5 0 1 0 -15 0zM605.39 468.81 a7.5 7.5 0 1 0 15 0 a7.5 7.5 0 1 0 -15 0zM605.39 543.81 a7.5 7.5 0 1 0 15 0 a7.5 7.5 0 1 0 -15 0zM475.49 468.81 a7.5 7.5 0 1 0 15 0 a7.5 7.5 0 1 0 -15 0zM670.35 581.31 a7.5 7.5 0 1 0 15 0 a7.5 7.5 0 1 0 -15 0zM670.35 656.31 a7.5 7.5 0 1 0 15 0 a7.5 7.5 0 1 0 -15 0zM605.39 693.81 a7.5 7.5 0 1 0 15 0 a7.5 7.5 0 1 0 -15 0zM865.21 93.81 a7.5 7.5 0 1 0 15 0 a7.5 7.5 0 1 0 -15 0zM930.16 131.31 a7.5 7.5 0 1 0 15 0 a7.5 7.5 0 1 0 -15 0zM930.16 206.31 a7.5 7.5 0 1 0 15 0 a7.5 7.5 0 1 0 -15 0zM865.21 243.81 a7.5 7.5 0 1 0 15 0 a7.5 7.5 0 1 0 -15 0zM800.25 206.31 a7.5 7.5 0 1 0 15 0 a7.5 7.5 0 1 0 -15 0zM800.25 131.31 a7.5 7.5 0 1 0 15 0 a7.5 7.5 0 1 0 -15 0zM865.21 318.81 a7.5 7.5 0 1 0 15 0 a7.5 7.5 0 1 0 -15 0zM800.25 356.31 a7.5 7.5 0 1 0 15 0 a7.5 7.5 0 1 0 -15 0zM735.3 318.81 a7.5 7.5 0 1 0 15 0 a7.5 7.5 0 1 0 -15 0zM735.3 243.81 a7.5 7.5 0 1 0 15 0 a7.5 7.5 0 1 0 -15 0zM800.25 431.31 a7.5 7.5 0 1 0 15 0 a7.5 7.5 0 1 0 -15 0zM865.21 468.81 a7.5 7.5 0 1 0 15 0 a7.5 7.5 0 1 0 -15 0zM865.21 543.81 a7.5 7.5 0 1 0 15 0 a7.5 7.5 0 1 0 -15 0zM800.25 581.31 a7.5 7.5 0 1 0 15 0 a7.5 7.5 0 1 0 -15 0zM735.3 543.81 a7.5 7.5 0 1 0 15 0 a7.5 7.5 0 1 0 -15 0zM735.3 468.81 a7.5 7.5 0 1 0 15 0 a7.5 7.5 0 1 0 -15 0zM930.16 581.31 a7.5 7.5 0 1 0 15 0 a7.5 7.5 0 1 0 -15 0zM930.16 656.31 a7.5 7.5 0 1 0 15 0 a7.5 7.5 0 1 0 -15 0zM865.21 693.81 a7.5 7.5 0 1 0 15 0 a7.5 7.5 0 1 0 -15 0zM800.25 656.31 a7.5 7.5 0 1 0 15 0 a7.5 7.5 0 1 0 -15 0zM930.16 -18.69 a7.5 7.5 0 1 0 15 0 a7.5 7.5 0 1 0 -15 0zM995.12 18.81 a7.5 7.5 0 1 0 15 0 a7.5 7.5 0 1 0 -15 0zM995.12 93.81 a7.5 7.5 0 1 0 15 0 a7.5 7.5 0 1 0 -15 0zM865.21 18.81 a7.5 7.5 0 1 0 15 0 a7.5 7.5 0 1 0 -15 0zM1060.07 131.31 a7.5 7.5 0 1 0 15 0 a7.5 7.5 0 1 0 -15 0zM1060.07 206.31 a7.5 7.5 0 1 0 15 0 a7.5 7.5 0 1 0 -15 0zM995.12 243.81 a7.5 7.5 0 1 0 15 0 a7.5 7.5 0 1 0 -15 0zM1125.02 318.81 a7.5 7.5 0 1 0 15 0 a7.5 7.5 0 1 0 -15 0zM1189.98 356.31 a7.5 7.5 0 1 0 15 0 a7.5 7.5 0 1 0 -15 0zM1189.98 431.31 a7.5 7.5 0 1 0 15 0 a7.5 7.5 0 1 0 -15 0zM1125.02 468.81 a7.5 7.5 0 1 0 15 0 a7.5 7.5 0 1 0 -15 0zM1060.07 431.31 a7.5 7.5 0 1 0 15 0 a7.5 7.5 0 1 0 -15 0zM1060.07 356.31 a7.5 7.5 0 1 0 15 0 a7.5 7.5 0 1 0 -15 0zM1125.02 543.81 a7.5 7.5 0 1 0 15 0 a7.5 7.5 0 1 0 -15 0zM1060.07 581.31 a7.5 7.5 0 1 0 15 0 a7.5 7.5 0 1 0 -15 0zM995.12 543.81 a7.5 7.5 0 1 0 15 0 a7.5 7.5 0 1 0 -15 0zM995.12 468.81 a7.5 7.5 0 1 0 15 0 a7.5 7.5 0 1 0 -15 0zM1254.93 468.81 a7.5 7.5 0 1 0 15 0 a7.5 7.5 0 1 0 -15 0zM1254.93 543.81 a7.5 7.5 0 1 0 15 0 a7.5 7.5 0 1 0 -15 0zM1189.98 581.31 a7.5 7.5 0 1 0 15 0 a7.5 7.5 0 1 0 -15 0zM1319.88 -18.69 a7.5 7.5 0 1 0 15 0 a7.5 7.5 0 1 0 -15 0zM1384.84 18.81 a7.5 7.5 0 1 0 15 0 a7.5 7.5 0 1 0 -15 0zM1384.84 93.81 a7.5 7.5 0 1 0 15 0 a7.5 7.5 0 1 0 -15 0zM1319.88 131.31 a7.5 7.5 0 1 0 15 0 a7.5 7.5 0 1 0 -15 0zM1254.93 93.81 a7.5 7.5 0 1 0 15 0 a7.5 7.5 0 1 0 -15 0zM1254.93 18.81 a7.5 7.5 0 1 0 15 0 a7.5 7.5 0 1 0 -15 0zM1384.84 318.81 a7.5 7.5 0 1 0 15 0 a7.5 7.5 0 1 0 -15 0zM1449.79 356.31 a7.5 7.5 0 1 0 15 0 a7.5 7.5 0 1 0 -15 0zM1449.79 431.31 a7.5 7.5 0 1 0 15 0 a7.5 7.5 0 1 0 -15 0zM1384.84 468.81 a7.5 7.5 0 1 0 15 0 a7.5 7.5 0 1 0 -15 0zM1319.88 431.31 a7.5 7.5 0 1 0 15 0 a7.5 7.5 0 1 0 -15 0zM1319.88 356.31 a7.5 7.5 0 1 0 15 0 a7.5 7.5 0 1 0 -15 0z" fill="#03305d"></path><path d="M75.54 63.91L118.84 88.91L118.84 138.91L75.54 163.91L32.24 138.91L32.24 88.91zM32.24 138.91L75.54 163.91L75.54 213.91L32.24 238.91L-11.06 213.91L-11.06 163.91zM75.54 363.91L118.84 388.91L118.84 438.91L75.54 463.91L32.24 438.91L32.24 388.91zM32.24 438.91L75.54 463.91L75.54 513.91L32.24 538.91L-11.06 513.91L-11.06 463.91zM75.54 513.91L118.84 538.91L118.84 588.91L75.54 613.91L32.24 588.91L32.24 538.91zM118.84 -11.09L162.15 13.91L162.15 63.91L118.84 88.91L75.54 63.91L75.54 13.91zM162.15 363.91L205.45 388.91L205.45 438.91L162.15 463.91L118.84 438.91L118.84 388.91zM118.84 438.91L162.15 463.91L162.15 513.91L118.84 538.91L75.54 513.91L75.54 463.91zM205.45 -11.09L248.75 13.91L248.75 63.91L205.45 88.91L162.15 63.91L162.15 13.91zM248.75 213.91L292.06 238.91L292.06 288.91L248.75 313.91L205.45 288.91L205.45 238.91zM248.75 363.91L292.06 388.91L292.06 438.91L248.75 463.91L205.45 438.91L205.45 388.91zM248.75 513.91L292.06 538.91L292.06 588.91L248.75 613.91L205.45 588.91L205.45 538.91zM292.06 -11.09L335.36 13.91L335.36 63.91L292.06 88.91L248.75 63.91L248.75 13.91zM292.06 138.91L335.36 163.91L335.36 213.91L292.06 238.91L248.75 213.91L248.75 163.91zM292.06 438.91L335.36 463.91L335.36 513.91L292.06 538.91L248.75 513.91L248.75 463.91zM335.36 513.91L378.66 538.91L378.66 588.91L335.36 613.91L292.06 588.91L292.06 538.91zM378.66 138.91L421.96 163.91L421.96 213.91L378.66 238.91L335.36 213.91L335.36 163.91zM421.96 363.91L465.27 388.91L465.27 438.91L421.96 463.91L378.66 438.91L378.66 388.91zM378.66 438.91L421.96 463.91L421.96 513.91L378.66 538.91L335.36 513.91L335.36 463.91zM421.96 513.91L465.27 538.91L465.27 588.91L421.96 613.91L378.66 588.91L378.66 538.91zM465.27 -11.09L508.57 13.91L508.57 63.91L465.27 88.91L421.96 63.91L421.96 13.91zM465.27 438.91L508.57 463.91L508.57 513.91L465.27 538.91L421.96 513.91L421.96 463.91zM551.87 -11.09L595.17 13.91L595.17 63.91L551.87 88.91L508.57 63.91L508.57 13.91zM595.17 213.91L638.48 238.91L638.48 288.91L595.17 313.91L551.87 288.91L551.87 238.91zM551.87 288.91L595.17 313.91L595.17 363.91L551.87 388.91L508.57 363.91L508.57 313.91zM595.17 513.91L638.48 538.91L638.48 588.91L595.17 613.91L551.87 588.91L551.87 538.91zM638.48 -11.09L681.78 13.91L681.78 63.91L638.48 88.91L595.17 63.91L595.17 13.91zM681.78 513.91L725.08 538.91L725.08 588.91L681.78 613.91L638.48 588.91L638.48 538.91zM725.08 -11.09L768.38 13.91L768.38 63.91L725.08 88.91L681.78 63.91L681.78 13.91zM725.08 288.91L768.38 313.91L768.38 363.91L725.08 388.91L681.78 363.91L681.78 313.91zM768.38 363.91L811.69 388.91L811.69 438.91L768.38 463.91L725.08 438.91L725.08 388.91zM811.69 -11.09L854.99 13.91L854.99 63.91L811.69 88.91L768.38 63.91L768.38 13.91zM811.69 138.91L854.99 163.91L854.99 213.91L811.69 238.91L768.38 213.91L768.38 163.91zM811.69 288.91L854.99 313.91L854.99 363.91L811.69 388.91L768.38 363.91L768.38 313.91zM941.59 63.91L984.9 88.91L984.9 138.91L941.59 163.91L898.29 138.91L898.29 88.91zM898.29 138.91L941.59 163.91L941.59 213.91L898.29 238.91L854.99 213.91L854.99 163.91zM941.59 213.91L984.9 238.91L984.9 288.91L941.59 313.91L898.29 288.91L898.29 238.91zM898.29 438.91L941.59 463.91L941.59 513.91L898.29 538.91L854.99 513.91L854.99 463.91zM941.59 513.91L984.9 538.91L984.9 588.91L941.59 613.91L898.29 588.91L898.29 538.91zM1028.2 63.91L1071.5 88.91L1071.5 138.91L1028.2 163.91L984.9 138.91L984.9 88.91zM984.9 138.91L1028.2 163.91L1028.2 213.91L984.9 238.91L941.59 213.91L941.59 163.91zM1028.2 213.91L1071.5 238.91L1071.5 288.91L1028.2 313.91L984.9 288.91L984.9 238.91zM984.9 288.91L1028.2 313.91L1028.2 363.91L984.9 388.91L941.59 363.91L941.59 313.91zM1028.2 363.91L1071.5 388.91L1071.5 438.91L1028.2 463.91L984.9 438.91L984.9 388.91zM1071.5 -11.09L1114.8 13.91L1114.8 63.91L1071.5 88.91L1028.2 63.91L1028.2 13.91zM1114.8 63.91L1158.11 88.91L1158.11 138.91L1114.8 163.91L1071.5 138.91L1071.5 88.91zM1071.5 138.91L1114.8 163.91L1114.8 213.91L1071.5 238.91L1028.2 213.91L1028.2 163.91zM1114.8 213.91L1158.11 238.91L1158.11 288.91L1114.8 313.91L1071.5 288.91L1071.5 238.91zM1114.8 513.91L1158.11 538.91L1158.11 588.91L1114.8 613.91L1071.5 588.91L1071.5 538.91zM1201.41 63.91L1244.71 88.91L1244.71 138.91L1201.41 163.91L1158.11 138.91L1158.11 88.91zM1158.11 138.91L1201.41 163.91L1201.41 213.91L1158.11 238.91L1114.8 213.91L1114.8 163.91zM1201.41 213.91L1244.71 238.91L1244.71 288.91L1201.41 313.91L1158.11 288.91L1158.11 238.91zM1201.41 363.91L1244.71 388.91L1244.71 438.91L1201.41 463.91L1158.11 438.91L1158.11 388.91zM1158.11 438.91L1201.41 463.91L1201.41 513.91L1158.11 538.91L1114.8 513.91L1114.8 463.91zM1244.71 -11.09L1288.01 13.91L1288.01 63.91L1244.71 88.91L1201.41 63.91L1201.41 13.91zM1288.01 63.91L1331.32 88.91L1331.32 138.91L1288.01 163.91L1244.71 138.91L1244.71 88.91zM1288.01 513.91L1331.32 538.91L1331.32 588.91L1288.01 613.91L1244.71 588.91L1244.71 538.91zM1374.62 213.91L1417.92 238.91L1417.92 288.91L1374.62 313.91L1331.32 288.91L1331.32 238.91zM1331.32 288.91L1374.62 313.91L1374.62 363.91L1331.32 388.91L1288.01 363.91L1288.01 313.91zM1331.32 438.91L1374.62 463.91L1374.62 513.91L1331.32 538.91L1288.01 513.91L1288.01 463.91zM1374.62 513.91L1417.92 538.91L1417.92 588.91L1374.62 613.91L1331.32 588.91L1331.32 538.91zM1417.92 -11.09L1461.22 13.91L1461.22 63.91L1417.92 88.91L1374.62 63.91L1374.62 13.91zM1461.22 213.91L1504.53 238.91L1504.53 288.91L1461.22 313.91L1417.92 288.91L1417.92 238.91zM1461.22 513.91L1504.53 538.91L1504.53 588.91L1461.22 613.91L1417.92 588.91L1417.92 538.91z" stroke="rgba(6, 80, 156, 0.93)" stroke-width="2"></path></g><defs><mask id="SvgjsMask1177"><rect width="1440" height="560" fill="#ffffff"></rect></mask><linearGradient x1="50%" y1="0%" x2="50%" y2="100%" gradientUnits="userSpaceOnUse" id="SvgjsLinearGradient1178"><stop stop-color="#0e2a47" offset="0"></stop><stop stop-color="rgba(26, 32, 54, 1)" offset="1"></stop></linearGradient></defs></svg>